<?xml version="1.0" encoding="UTF-8"?> <svg xmlns="http://www.w3.org/2000/svg" width="53" height="36" viewBox="0 0 53 36" fill="none"><rect x="0.8797" y="0.831726" width="51.4904" height="34.8317" rx="4.54327" fill="white"></rect><path d="M43.5197 30.4118C43.5198 30.0816 43.5193 29.7513 43.5188 29.421C43.5188 29.4202 43.5188 29.4195 43.5188 29.4186C43.5168 28.1791 43.5125 26.9396 43.5205 25.7002C43.5362 23.2645 43.5688 20.829 43.5835 18.3932C43.5838 18.3466 43.5841 18.2999 43.5844 18.2533C43.5846 18.2077 43.585 18.1622 43.5852 18.1166C43.5882 17.5649 43.5523 17.0119 43.5043 16.46C43.4682 16.045 43.3094 15.9349 42.6799 15.8638C42.4031 15.8325 42.1234 15.8053 41.8433 15.787C41.6768 15.7761 41.5102 15.7684 41.344 15.7647C41.3436 15.7647 41.3431 15.7647 41.3427 15.7647C41.1695 15.761 40.9965 15.7574 40.8233 15.754C40.791 15.7533 40.7586 15.7527 40.7263 15.7521C40.5576 15.7488 40.3889 15.7456 40.2202 15.7425C40.1951 15.742 40.1699 15.7416 40.1448 15.7412C38.674 15.7145 37.2032 15.6949 35.7326 15.6625C33.3363 15.6099 30.9403 15.5417 28.5441 15.4857C26.9462 15.4484 25.3483 15.4186 23.7504 15.3894C23.2053 15.3794 22.6598 15.3909 22.1151 15.3755C20.9658 15.3429 19.8169 15.301 18.6681 15.2591C17.7141 15.2244 16.7607 15.1736 15.8064 15.149C15.6632 15.1454 15.5201 15.1418 15.3769 15.1385C15.3768 15.1385 15.3767 15.1385 15.3766 15.1385C15.16 15.1336 14.9434 15.129 14.7267 15.1251C14.718 15.1249 14.7095 15.1247 14.7008 15.1246C14.5984 15.1227 14.4962 15.1211 14.3938 15.1195C14.3819 15.1193 14.3699 15.1192 14.358 15.119C14.2548 15.1175 14.1516 15.1161 14.0484 15.1149C14.0441 15.1148 14.0398 15.1148 14.0355 15.1148C13.9343 15.1136 13.8332 15.1127 13.732 15.1119C13.7224 15.1119 13.7127 15.1118 13.7032 15.1117C13.6045 15.1109 13.5059 15.1104 13.4073 15.1101C13.3898 15.11 13.3724 15.1099 13.3549 15.1099C13.2578 15.1097 13.1609 15.1095 13.0638 15.1096C13.0482 15.1096 13.0327 15.1097 13.017 15.1097C12.9157 15.1099 12.8145 15.1102 12.7133 15.1109C12.5223 15.112 12.3309 15.1299 12.1407 15.1553C11.9505 15.1806 11.7617 15.2136 11.5757 15.2451C11.4565 15.2653 11.355 15.2963 11.2724 15.3381C11.2649 15.342 11.2575 15.3459 11.2504 15.3499C11.2145 15.3698 11.1824 15.3919 11.1543 15.4164C11.1488 15.4213 11.1433 15.4262 11.1381 15.4313C11.1169 15.4515 11.0984 15.4732 11.0825 15.4963C11.0706 15.5137 11.0601 15.5318 11.0512 15.5508C11.0304 15.595 11.0177 15.6437 11.0136 15.6968C11.0095 15.7488 11.0045 15.8008 10.999 15.8528C10.9879 15.9567 10.9745 16.0606 10.9608 16.1644C10.9539 16.2163 10.947 16.2682 10.9402 16.3201C10.9335 16.372 10.9269 16.4239 10.9208 16.4759C10.9024 16.6317 10.888 16.7875 10.8847 16.9437C10.8832 17.0124 10.882 17.0811 10.8809 17.1499C10.8807 17.1668 10.8805 17.1837 10.8803 17.2005C10.8795 17.254 10.8788 17.3076 10.8783 17.361C10.8781 17.3759 10.878 17.3907 10.8778 17.4056C10.8773 17.4632 10.8768 17.5209 10.8765 17.5786C10.8764 17.5872 10.8764 17.596 10.8763 17.6046C10.8718 18.4028 10.8838 19.2013 10.867 19.9993C10.8146 22.5073 10.7546 25.0152 10.6953 27.5231V27.5248C10.6774 28.2798 10.6596 29.0348 10.6422 29.7897C10.6409 29.8434 10.6419 29.8937 10.6455 29.9407C10.6467 29.9564 10.6482 29.9717 10.65 29.9867C10.6553 30.0316 10.6634 30.0733 10.6744 30.1122C10.6855 30.151 10.6996 30.1869 10.717 30.2201C10.7228 30.2312 10.729 30.242 10.7356 30.2525C10.7388 30.2577 10.7422 30.2629 10.7457 30.268C10.7527 30.2782 10.76 30.2881 10.7677 30.2978C10.7949 30.3315 10.8269 30.362 10.8643 30.3893C10.8803 30.4011 10.8974 30.4123 10.9155 30.4229C10.9336 30.4336 10.9528 30.4438 10.973 30.4535C10.9999 30.4663 11.0288 30.4783 11.0597 30.4895C11.0674 30.4924 11.0753 30.4951 11.0832 30.4978C11.2507 30.5546 11.4745 30.5899 11.7685 30.6139C11.7975 30.6164 11.8267 30.6177 11.8559 30.6187C11.8851 30.6198 11.9144 30.6204 11.9436 30.6215C11.9449 30.6216 11.9462 30.6216 11.9475 30.6217C12.0584 30.6258 12.1694 30.6299 12.2803 30.6341C12.319 30.6356 12.3576 30.637 12.3962 30.6385C12.4694 30.6412 12.5426 30.6441 12.6158 30.6469C12.6631 30.6487 12.7103 30.6505 12.7576 30.6524C12.8061 30.6543 12.8546 30.6561 12.9031 30.658C13.5768 30.6842 14.2503 30.7112 14.924 30.7354H14.9242C15.4303 30.7537 15.9364 30.7705 16.4426 30.7843C19.8133 30.8761 23.1845 30.9553 26.5555 31.0396C26.5555 31.0383 26.5556 31.037 26.5556 31.0356C27.7444 31.0653 28.9332 31.1052 30.122 31.1228C32.9994 31.1653 35.8769 31.2034 38.7544 31.2381C38.7556 31.2381 38.7568 31.2381 38.7581 31.2381C39.2895 31.2445 39.8209 31.2509 40.3522 31.257C40.5371 31.2592 40.7221 31.2602 40.907 31.2601C40.9995 31.2601 41.0919 31.2598 41.1844 31.2592C41.6468 31.2564 42.1089 31.2474 42.57 31.2338C42.5823 31.2335 42.5945 31.233 42.6065 31.2325C42.6096 31.2324 42.6126 31.2322 42.6157 31.2321C42.6268 31.2316 42.6378 31.2311 42.6487 31.2305C42.6496 31.2304 42.6505 31.2304 42.6514 31.2303C42.6631 31.2297 42.6747 31.2289 42.6862 31.2282C42.6888 31.228 42.6914 31.2278 42.6941 31.2276C42.7045 31.2268 42.7147 31.2261 42.7248 31.2252C42.726 31.2251 42.7272 31.225 42.7283 31.2249C42.7396 31.2239 42.7509 31.2229 42.7619 31.2218C42.7638 31.2216 42.7658 31.2213 42.7678 31.2212C42.7778 31.2201 42.7879 31.219 42.7977 31.2178C42.7988 31.2178 42.7998 31.2176 42.8008 31.2175C42.8119 31.2162 42.8227 31.2148 42.8335 31.2134C42.8345 31.2132 42.8356 31.213 42.8367 31.2129C42.8468 31.2115 42.8568 31.21 42.8667 31.2085C42.8675 31.2084 42.8683 31.2083 42.869 31.2082C42.8798 31.2065 42.8904 31.2047 42.9009 31.2029C42.9011 31.2029 42.9011 31.2028 42.9013 31.2028C42.9116 31.201 42.9218 31.1991 42.9318 31.1971C42.9323 31.197 42.9328 31.1969 42.9333 31.1967C42.9538 31.1926 42.9737 31.1882 42.9929 31.1834C42.9931 31.1833 42.9934 31.1833 42.9936 31.1833C43.013 31.1784 43.0318 31.1733 43.0499 31.1677C43.05 31.1677 43.0501 31.1676 43.0502 31.1676C43.3211 31.0851 43.4571 30.9243 43.5054 30.6691C43.521 30.5843 43.5197 30.4977 43.5197 30.4118Z" fill="#66CC99"></path><path d="M38.9796 28.6931C39.1746 28.3412 39.4359 28.0519 39.7687 27.8256C40.0985 27.6013 40.4611 27.4565 40.856 27.4156C41.1225 27.388 41.3935 27.3885 41.6618 27.3979C41.7161 27.3999 41.7697 27.4043 41.8228 27.4108C41.8202 26.707 41.8184 26.0031 41.8219 25.2994C41.831 23.4633 41.8526 21.6274 41.8632 19.7913C41.6525 19.7904 41.4423 19.7758 41.2337 19.7355C40.7482 19.6417 40.3343 19.4108 39.9683 19.0822C39.5835 18.7367 39.2944 18.3272 39.1282 17.8377C39.0394 17.5762 38.9898 17.3177 38.9806 17.0623C37.5998 17.036 36.2188 17.0167 34.838 16.986C32.6943 16.9384 30.5507 16.878 28.407 16.8276C26.9776 16.794 25.5481 16.7667 24.1185 16.7397C23.6309 16.7306 23.1429 16.7393 22.6556 16.7255C21.6275 16.6967 20.5996 16.6601 19.5718 16.6235C18.7184 16.5931 17.8654 16.5496 17.0117 16.5276C16.4792 16.5139 15.9462 16.5027 15.4135 16.4963C15.4004 16.6384 15.3744 16.7809 15.3357 16.9234C15.2926 17.0824 15.2373 17.238 15.1876 17.3952C14.9842 17.8253 14.747 18.2287 14.3798 18.5404C14.0156 18.8494 13.5962 19.0305 13.1168 19.0546C12.9464 19.0632 12.7758 19.0669 12.6057 19.0596C12.6073 19.5498 12.6113 20.0399 12.6012 20.5298C12.5592 22.5756 12.5105 24.6213 12.4624 26.6669C12.4979 26.6678 12.5333 26.6688 12.5687 26.67C12.9296 26.6826 13.2643 26.8046 13.5855 26.963C13.7045 27.0217 13.8206 27.0865 13.9381 27.1482C14.1466 27.2576 14.3348 27.3937 14.4845 27.5769C14.541 27.646 14.5941 27.7198 14.6366 27.798C14.7492 28.006 14.8776 28.2092 14.9591 28.4294C15.0736 28.7385 15.1166 29.0541 15.0941 29.372C15.9317 29.4038 16.7692 29.4348 17.6071 29.4575C20.6226 29.5393 23.6385 29.6104 26.6543 29.6858C26.6543 29.6847 26.6544 29.6836 26.6544 29.6825C27.7179 29.7091 28.7814 29.7442 29.8449 29.7606C32.7819 29.8063 35.7189 29.8472 38.6558 29.8845C38.6586 29.4788 38.7645 29.0812 38.9796 28.6931Z" fill="#339966"></path><path d="M18.5427 23.4857C18.4406 23.7018 18.3214 23.9044 18.1369 24.061C17.9539 24.2163 17.7432 24.3073 17.5024 24.3194C17.3385 24.3276 17.1742 24.3271 17.0121 24.2958C16.7681 24.2487 16.5602 24.1327 16.3764 23.9676C16.1831 23.7941 16.0379 23.5883 15.9543 23.3424C15.8326 22.9842 15.8571 22.6367 16.042 22.303C16.14 22.1262 16.2713 21.9809 16.4385 21.8672C16.6041 21.7545 16.7863 21.6818 16.9846 21.6612C17.1185 21.6473 17.2547 21.6476 17.3895 21.6523C17.5707 21.6586 17.7389 21.7199 17.9003 21.7995C17.9601 21.829 18.0184 21.8616 18.0774 21.8926C18.1822 21.9475 18.2767 22.0159 18.3519 22.108C18.3803 22.1426 18.407 22.1797 18.4283 22.2191C18.4849 22.3235 18.5494 22.4256 18.5904 22.5362C18.6765 22.7688 18.6822 23.0089 18.6171 23.2489C18.5955 23.3286 18.5677 23.4067 18.5427 23.4857Z" fill="#66CC99"></path><path d="M38.4337 23.9833C38.3316 24.1993 38.2124 24.402 38.0279 24.5586C37.845 24.7138 37.6342 24.8048 37.3934 24.817C37.2295 24.8252 37.0653 24.8247 36.903 24.7933C36.6591 24.7463 36.4511 24.6303 36.2674 24.4652C36.074 24.2917 35.9288 24.0859 35.8452 23.84C35.7235 23.4818 35.748 23.1343 35.933 22.8006C36.0309 22.6238 36.1622 22.4785 36.3294 22.3648C36.495 22.2521 36.6772 22.1793 36.8756 22.1588C37.0095 22.1449 37.1456 22.1452 37.2804 22.1499C37.4617 22.1562 37.6298 22.2175 37.7912 22.2971C37.851 22.3266 37.9093 22.3591 37.9684 22.3901C38.0731 22.4451 38.1676 22.5135 38.2429 22.6055C38.2712 22.6402 38.2979 22.6773 38.3192 22.7166C38.3758 22.8211 38.4403 22.9232 38.4813 23.0338C38.5674 23.2664 38.5732 23.5065 38.5081 23.7465C38.4865 23.8261 38.4587 23.9043 38.4337 23.9833Z" fill="#66CC99"></path><path d="M32.2877 25.2904C31.9197 26.1742 31.3274 26.9689 30.5344 27.5568C28.6102 28.9833 25.7998 28.9848 23.8942 27.5225C23.8394 27.4801 23.7853 27.4369 23.7319 27.3927C20.9291 25.0634 20.9563 20.2762 24.3386 18.494C26.5338 17.3374 29.6179 17.7429 31.3491 19.5527C32.837 21.1085 33.0738 23.4028 32.2877 25.2904Z" fill="#66CC99"></path><path d="M27.6121 26.4664C27.6075 26.6535 27.6033 26.8635 27.5966 27.0735C27.5911 27.2458 27.5682 27.2739 27.3929 27.2693C27.158 27.2633 26.9233 27.2473 26.6891 27.2298C26.5498 27.2194 26.5147 27.1766 26.5163 27.0313C26.5184 26.8392 26.5253 26.6472 26.5303 26.4447C26.4486 26.4226 26.381 26.4026 26.3125 26.3862C25.7713 26.2565 25.3758 25.9361 25.0979 25.461C24.9768 25.2539 24.9414 25.0194 24.8867 24.792C24.859 24.6769 24.9062 24.6119 25.0236 24.5755C25.0801 24.558 25.1417 24.5479 25.2008 24.5487C25.4296 24.5519 25.6584 24.5619 25.8873 24.5669C25.9938 24.5693 26.0457 24.6248 26.0792 24.7231C26.1295 24.8706 26.1867 25.0169 26.2547 25.1571C26.3795 25.4144 26.6095 25.5292 26.8773 25.5659C27.1759 25.6068 27.4785 25.5713 27.7413 25.4329C28.37 25.1021 28.4475 24.488 27.971 23.9826C27.7664 23.7656 27.4877 23.6501 27.2118 23.5403C26.714 23.3419 26.2118 23.1496 25.7641 22.849C25.6006 22.7393 25.4468 22.6077 25.3123 22.4639C25.006 22.1364 24.94 21.7415 25.0589 21.319C25.2487 20.6448 25.6947 20.2295 26.373 20.0622C26.4603 20.0407 26.5491 20.0253 26.6562 20.0032C26.6618 19.9113 26.6692 19.8175 26.6729 19.7235C26.6774 19.6092 26.6779 19.4946 26.6819 19.3802C26.6864 19.2541 26.7187 19.2051 26.8357 19.2033C27.0882 19.1993 27.3409 19.2075 27.5934 19.214C27.6934 19.2166 27.7474 19.2807 27.7611 19.373C27.776 19.474 27.785 19.5764 27.7876 19.6785C27.7905 19.7921 27.7832 19.9061 27.7802 20.0263C27.8661 20.0535 27.9331 20.0756 28.0007 20.0959C28.802 20.3365 29.1143 20.9295 29.317 21.682C29.3474 21.7951 29.3003 21.8685 29.1863 21.9016C29.124 21.9197 29.0559 21.9262 28.9907 21.9245C28.8342 21.9202 28.678 21.9045 28.5214 21.9C28.3921 21.8963 28.3145 21.8452 28.2656 21.7173C28.2191 21.5958 28.1429 21.4842 28.0702 21.3746C27.7301 20.8626 26.872 20.9202 26.5031 21.322C26.3204 21.521 26.3029 21.8205 26.4707 22.0346C26.5847 22.18 26.7313 22.2866 26.904 22.3493C27.0961 22.4191 27.2931 22.475 27.4867 22.5405C27.7488 22.6293 28.0148 22.7089 28.2701 22.8144C29.0065 23.1186 29.5196 23.8903 29.4769 24.6454C29.458 24.9785 29.3591 25.2853 29.1548 25.5508C28.9461 25.822 28.6918 26.0422 28.3721 26.1743C28.1342 26.2725 27.8914 26.3596 27.6121 26.4664Z" fill="white"></path><path d="M43.5054 24.3153C43.1917 20.9044 43.8415 19.5911 43.2466 16.2953C43.1752 16.002 42.3883 15.7502 41.7481 15.7629C41.2988 15.7718 40.8429 15.7888 40.3936 15.8268C31.6556 16.5677 22.9205 17.3521 14.1753 17.9985C13.089 18.105 10.8031 16.0421 10.5843 14.996C9.79133 11.2054 9.82609 18.4633 9.80081 19.7431C10.0964 22.2664 10.2851 24.7999 10.5008 27.3311C10.5465 27.8734 10.5921 28.4158 10.6381 28.9581C10.6403 29.185 10.7988 29.3634 11.0274 29.3996C11.4214 29.4856 12.0196 29.4199 12.4771 29.3884C13.3289 29.3263 14.1808 29.266 15.0325 29.2027C18.9492 28.9022 22.863 28.5656 26.7784 28.2469C26.7783 28.2459 26.7782 28.245 26.7781 28.244C30.8846 27.9208 34.985 27.5281 39.0872 27.1582C40.3694 27.0414 41.6543 26.9295 42.9317 26.7702C43.3412 26.7402 43.7293 26.6326 43.5054 24.3153Z" fill="#2B8958"></path><path d="M43.3399 25.3224C43.3047 24.994 43.269 24.6657 43.2333 24.3374C43.2332 24.3366 43.2331 24.3358 43.233 24.335C43.0986 23.1028 42.9621 21.8708 42.8376 20.6377C42.593 18.2142 42.3653 15.7892 42.1198 13.3658C42.115 13.3194 42.1104 13.2729 42.1056 13.2265C42.1011 13.1812 42.0965 13.1359 42.0918 13.0906C42.0359 12.5417 41.9411 11.9958 41.8344 11.4522C41.7542 11.0434 41.5846 10.9508 40.9511 10.9474C40.6725 10.9459 40.3915 10.9487 40.1111 10.9604C39.9444 10.9674 39.7779 10.9775 39.6123 10.9916C39.6119 10.9916 39.6115 10.9917 39.611 10.9917C39.4384 11.0064 39.2659 11.0214 39.0935 11.0365C39.0612 11.0394 39.029 11.0422 38.9967 11.045C38.8287 11.0597 38.6606 11.0746 38.4926 11.0895C38.4675 11.0918 38.4425 11.094 38.4174 11.0962C36.9522 11.2268 35.4877 11.3643 34.022 11.4893C31.6338 11.6928 29.2442 11.881 26.8557 12.0813C25.263 12.2148 23.671 12.3559 22.0791 12.4975C21.5361 12.5458 20.995 12.6156 20.4517 12.6584C19.3056 12.7488 18.1588 12.8298 17.012 12.9109C16.0598 12.9782 15.1064 13.0297 14.155 13.1071C14.0123 13.1187 13.8695 13.1306 13.7268 13.1425C13.7268 13.1425 13.7267 13.1425 13.7266 13.1425C13.5106 13.1607 13.2948 13.1793 13.0789 13.1986C13.0703 13.1993 13.0617 13.2001 13.0531 13.2009C12.9511 13.2101 12.8492 13.2193 12.7473 13.2287C12.7354 13.2298 12.7235 13.2308 12.7117 13.232C12.6089 13.2416 12.5062 13.2512 12.4034 13.261C12.3991 13.2614 12.3949 13.2619 12.3907 13.2623C12.2899 13.2719 12.1892 13.2818 12.0885 13.2919C12.079 13.2928 12.0693 13.2938 12.0598 13.2947C11.9616 13.3045 11.8635 13.3146 11.7654 13.3247C11.748 13.3266 11.7306 13.3283 11.7132 13.3301C11.6168 13.3402 11.5203 13.3504 11.4239 13.3609C11.4083 13.3626 11.3928 13.3643 11.3774 13.366C11.2767 13.377 11.176 13.3881 11.0755 13.3996C10.8857 13.4211 10.6973 13.4593 10.5109 13.5048C10.3245 13.5504 10.1402 13.6033 9.95876 13.6545C9.84234 13.6873 9.7448 13.729 9.66721 13.7794C9.66014 13.7839 9.65324 13.7886 9.6465 13.7933C9.61291 13.8169 9.58339 13.8425 9.55819 13.8697C9.55312 13.8752 9.54829 13.8806 9.54355 13.8862C9.52468 13.9086 9.50863 13.9321 9.49524 13.9568C9.48526 13.9754 9.47678 13.9945 9.46996 14.0144C9.45399 14.0606 9.44659 14.1103 9.44809 14.1636C9.44958 14.2158 9.45025 14.268 9.45025 14.3202C9.45033 14.4247 9.44809 14.5294 9.44551 14.6341C9.44426 14.6865 9.44285 14.7388 9.44168 14.7911C9.44052 14.8435 9.43952 14.8958 9.43894 14.9481C9.43728 15.1049 9.43969 15.2614 9.45299 15.417C9.4589 15.4855 9.46497 15.554 9.47129 15.6225C9.47287 15.6393 9.47445 15.6561 9.47603 15.6729C9.48102 15.7262 9.48601 15.7794 9.49116 15.8327C9.49258 15.8475 9.49407 15.8623 9.49549 15.877C9.50106 15.9344 9.5068 15.9918 9.51262 16.0491C9.51345 16.0577 9.51436 16.0663 9.51528 16.0749C9.59603 16.869 9.69315 17.6618 9.76176 18.4569C9.97747 20.9562 10.1858 23.4561 10.3947 25.9559C10.3948 25.9565 10.3948 25.9571 10.3948 25.9576C10.4577 26.7102 10.5207 27.4627 10.5839 28.2153C10.5884 28.2688 10.5948 28.3187 10.6034 28.3651C10.6062 28.3806 10.6094 28.3956 10.6127 28.4104C10.6229 28.4544 10.6353 28.4951 10.6505 28.5325C10.6656 28.5699 10.6835 28.6041 10.7044 28.6353C10.7113 28.6457 10.7186 28.6558 10.7262 28.6655C10.7301 28.6704 10.734 28.6751 10.738 28.6799C10.7459 28.6893 10.7543 28.6983 10.7631 28.7072C10.7936 28.7378 10.8287 28.7646 10.8689 28.7879C10.8861 28.7979 10.9042 28.8072 10.9233 28.8158C10.9424 28.8245 10.9626 28.8326 10.9837 28.84C11.0119 28.8499 11.0418 28.8588 11.0738 28.8667C11.0817 28.8687 11.0898 28.8706 11.098 28.8725C11.2707 28.9111 11.4969 28.9223 11.7917 28.9147C11.8209 28.914 11.85 28.9122 11.8792 28.9101C11.9084 28.9081 11.9376 28.9057 11.9668 28.9036C11.9681 28.9035 11.9694 28.9034 11.9707 28.9033C12.0814 28.8955 12.1922 28.8878 12.3029 28.8801C12.3415 28.8775 12.3801 28.8748 12.4187 28.8721C12.4917 28.8671 12.5648 28.8621 12.6378 28.857C12.685 28.8538 12.7322 28.8505 12.7794 28.8473C12.8278 28.8439 12.8762 28.8407 12.9246 28.8374C13.5972 28.7915 14.2698 28.7463 14.9422 28.6985H14.9424C15.4475 28.6626 15.9525 28.6252 16.4573 28.5849C19.8185 28.3163 23.1789 28.0348 26.5397 27.7586C26.5396 27.7573 26.5394 27.756 26.5393 27.7547C27.7245 27.6573 28.9108 27.57 30.0946 27.4605C32.9602 27.1954 35.8252 26.926 38.6899 26.6531C38.6911 26.6531 38.6924 26.6529 38.6936 26.6528C39.2227 26.6024 39.7517 26.5519 40.2807 26.5013C40.4647 26.4837 40.6488 26.4649 40.8326 26.4451C40.9246 26.4352 41.0165 26.4249 41.1084 26.4146C41.5678 26.3624 42.0263 26.304 42.4833 26.2413C42.4956 26.2397 42.5075 26.2379 42.5194 26.2362C42.5224 26.2358 42.5254 26.2353 42.5284 26.2348C42.5394 26.2332 42.5503 26.2314 42.561 26.2297C42.5619 26.2295 42.5628 26.2294 42.5637 26.2293C42.5752 26.2274 42.5867 26.2254 42.598 26.2234C42.6006 26.2229 42.6032 26.2225 42.6057 26.222C42.616 26.2201 42.6261 26.2182 42.636 26.2163C42.6372 26.2161 42.6383 26.2159 42.6394 26.2156C42.6506 26.2135 42.6616 26.2112 42.6724 26.2089C42.6743 26.2085 42.6763 26.2081 42.6781 26.2077C42.688 26.2056 42.6978 26.2034 42.7075 26.2012C42.7085 26.2009 42.7096 26.2007 42.7106 26.2005C42.7214 26.198 42.7321 26.1954 42.7426 26.1929C42.7437 26.1926 42.7447 26.1924 42.7458 26.192C42.7557 26.1895 42.7655 26.187 42.7751 26.1845C42.7759 26.1843 42.7766 26.184 42.7774 26.1839C42.7879 26.181 42.7983 26.1781 42.8085 26.1751C42.8086 26.1751 42.8087 26.1751 42.8089 26.1751C42.819 26.1721 42.8289 26.1692 42.8386 26.1661C42.8391 26.1659 42.8396 26.1657 42.8401 26.1656C42.86 26.1593 42.8792 26.1528 42.8979 26.146C42.8981 26.1459 42.8984 26.1458 42.8986 26.1457C42.9174 26.1388 42.9355 26.1316 42.9529 26.1242C42.953 26.1242 42.9531 26.1242 42.9532 26.1242C43.2137 26.0131 43.3318 25.8388 43.3525 25.5799C43.3596 25.4937 43.3491 25.4078 43.3399 25.3224Z" fill="#66CC99"></path><path d="M38.6412 24.0986C38.7975 23.7279 39.0265 23.4123 39.3332 23.1518C39.6371 22.8936 39.9822 22.7108 40.3705 22.628C40.6325 22.5721 40.902 22.5436 41.1698 22.5243C41.2239 22.5204 41.2778 22.519 41.3313 22.5199C41.2535 21.8203 41.1766 21.1207 41.1049 20.4206C40.9178 18.594 40.7431 16.7663 40.5576 14.9395C40.348 14.9611 40.1375 14.969 39.9258 14.9513C39.433 14.9099 38.9969 14.7245 38.5979 14.4369C38.1783 14.1345 37.8472 13.7582 37.6296 13.2893C37.5133 13.0388 37.4365 12.7871 37.4001 12.5341C36.0243 12.6553 34.6491 12.7837 33.273 12.9007C31.1364 13.0823 28.9987 13.2512 26.8619 13.43C25.437 13.5493 24.0128 13.6749 22.5886 13.8008C22.1028 13.8438 21.6186 13.9045 21.1325 13.9429C20.1072 14.024 19.0813 14.0974 18.0555 14.1708C17.2036 14.2318 16.3509 14.2796 15.4998 14.3489C14.9688 14.3922 14.4377 14.438 13.9073 14.4885C13.9095 14.6312 13.8989 14.7757 13.8757 14.9215C13.8497 15.0841 13.8114 15.2448 13.7787 15.4064C13.6224 15.8558 13.4297 16.2822 13.0978 16.6313C12.7687 16.9775 12.3711 17.2024 11.897 17.2775C11.7284 17.3042 11.5592 17.3262 11.3892 17.3372C11.4432 17.8243 11.4996 18.3112 11.5419 18.7993C11.7185 20.838 11.8887 22.8771 12.0593 24.9162C12.0947 24.9132 12.1301 24.9105 12.1654 24.9079C12.5256 24.8819 12.8714 24.9674 13.2077 25.0905C13.3324 25.1362 13.4546 25.1882 13.5781 25.237C13.7971 25.3235 13.9987 25.4386 14.1672 25.6048C14.2308 25.6675 14.2915 25.7351 14.342 25.8084C14.4762 26.0032 14.6257 26.1916 14.7302 26.4018C14.877 26.6968 14.9535 27.0061 14.965 27.3245C15.8012 27.2667 16.6373 27.2081 17.4728 27.1411C20.4798 26.9003 23.4861 26.6489 26.4926 26.4018C26.4925 26.4007 26.4924 26.3995 26.4923 26.3985C27.5526 26.3113 28.6138 26.2326 29.673 26.1354C32.5981 25.8672 35.5226 25.5941 38.4467 25.3175C38.406 24.9141 38.4687 24.5075 38.6412 24.0986Z" fill="#339966"></path><path d="M17.7658 21.1038C17.6873 21.3296 17.5905 21.5438 17.4237 21.7192C17.2584 21.8931 17.0587 22.0061 16.8205 22.0438C16.6584 22.0695 16.4951 22.0865 16.3304 22.0727C16.0829 22.0519 15.8638 21.9588 15.6633 21.8143C15.4526 21.6624 15.2862 21.4733 15.1769 21.2378C15.0176 20.8946 15.0049 20.5465 15.1531 20.195C15.2316 20.0087 15.3467 19.8502 15.5007 19.7193C15.6534 19.5896 15.8268 19.4978 16.0218 19.4562C16.1534 19.4281 16.2888 19.4138 16.4233 19.4041C16.6043 19.3911 16.778 19.434 16.947 19.4958C17.0096 19.5188 17.0711 19.5449 17.1331 19.5694C17.2431 19.6129 17.3444 19.6707 17.4291 19.7542C17.461 19.7857 17.4915 19.8197 17.5169 19.8565C17.5843 19.9543 17.6593 20.049 17.7119 20.1545C17.8223 20.3766 17.8537 20.6147 17.8146 20.8602C17.8014 20.942 17.7821 21.0226 17.7658 21.1038Z" fill="#66CC99"></path><path d="M37.596 19.474C37.5175 19.6998 37.4207 19.914 37.254 20.0894C37.0887 20.2633 36.8889 20.3763 36.6508 20.414C36.4887 20.4397 36.3254 20.4567 36.1607 20.4429C35.9131 20.4221 35.694 20.329 35.4936 20.1845C35.2829 20.0326 35.1165 19.8435 35.0071 19.608C34.8478 19.2648 34.8352 18.9167 34.9833 18.5652C35.0619 18.3789 35.1769 18.2204 35.331 18.0895C35.4836 17.9598 35.657 17.868 35.852 17.8264C35.9837 17.7983 36.119 17.784 36.2536 17.7743C36.4345 17.7613 36.6083 17.8042 36.7772 17.8661C36.8399 17.889 36.9013 17.9151 36.9634 17.9397C37.0734 17.9831 37.1747 18.0409 37.2593 18.1244C37.2912 18.1559 37.3218 18.1899 37.3471 18.2267C37.4146 18.3245 37.4896 18.4192 37.5421 18.5248C37.6526 18.7468 37.6839 18.9849 37.6448 19.2304C37.6317 19.3121 37.6125 19.3928 37.596 19.474Z" fill="#66CC99"></path><path d="M31.6241 21.4303C31.3526 22.3484 30.8486 23.2018 30.123 23.871C28.3622 25.4949 25.5679 25.7965 23.5171 24.5462C23.458 24.5099 23.3997 24.4727 23.3418 24.4346C20.3063 22.4179 19.8219 17.6552 22.9945 15.522C25.0536 14.1375 28.1634 14.2112 30.0779 15.8258C31.7236 17.2137 32.204 19.4696 31.6241 21.4303Z" fill="#66CC99"></path><path d="M27.1014 23.0992C27.1167 23.2856 27.135 23.4949 27.1508 23.7044C27.1637 23.8763 27.1439 23.9066 26.9691 23.9209C26.735 23.9399 26.4999 23.949 26.265 23.9567C26.1254 23.9612 26.086 23.9224 26.072 23.7778C26.0537 23.5866 26.0399 23.395 26.0233 23.1931C25.9397 23.1799 25.8704 23.1673 25.8005 23.1583C25.2485 23.0872 24.8212 22.8109 24.4941 22.368C24.3516 22.175 24.2914 21.9457 24.2126 21.7255C24.1728 21.614 24.2129 21.5443 24.3256 21.4956C24.38 21.4722 24.4401 21.4555 24.4989 21.4501C24.7268 21.4287 24.9553 21.4142 25.1834 21.3948C25.2896 21.3859 25.3471 21.4355 25.3909 21.5295C25.4567 21.6708 25.5292 21.8102 25.6117 21.9423C25.7633 22.1848 26.0043 22.2743 26.2744 22.2822C26.5757 22.291 26.8728 22.2233 27.1193 22.0578C27.709 21.6616 27.7206 21.0428 27.1928 20.5912C26.9663 20.3973 26.6768 20.3123 26.3908 20.2324C25.8746 20.0884 25.3548 19.9508 24.8775 19.6998C24.7033 19.6082 24.5363 19.4938 24.3872 19.3652C24.0477 19.0722 23.9399 18.6867 24.013 18.2538C24.1297 17.5632 24.5288 17.1028 25.1853 16.8639C25.2698 16.8331 25.3565 16.8084 25.4606 16.7749C25.4563 16.683 25.4537 16.5888 25.4473 16.495C25.4396 16.3809 25.4279 16.2669 25.4197 16.1528C25.4107 16.0269 25.4375 15.9747 25.5536 15.9604C25.8043 15.9295 26.0564 15.9107 26.3082 15.8901C26.4079 15.882 26.4684 15.94 26.4919 16.0304C26.5176 16.1291 26.5375 16.23 26.5509 16.3312C26.5659 16.4439 26.5709 16.558 26.5807 16.6779C26.669 16.6957 26.738 16.7106 26.8074 16.7236C27.6298 16.8772 28.0036 17.4334 28.2855 18.16C28.3278 18.2692 28.2887 18.3472 28.179 18.3922C28.119 18.4169 28.052 18.4306 27.987 18.4358C27.8309 18.4483 27.6739 18.4494 27.5177 18.4617C27.3888 18.4718 27.3062 18.4292 27.2439 18.3073C27.1847 18.1915 27.097 18.0886 27.013 17.9874C26.6202 17.5147 25.7732 17.6636 25.4493 18.1026C25.289 18.32 25.3035 18.6195 25.4932 18.8145C25.6221 18.947 25.7791 19.0372 25.9577 19.0811C26.156 19.1299 26.3578 19.1645 26.5573 19.209C26.8274 19.2692 27.1005 19.32 27.3656 19.3976C28.1302 19.6214 28.7229 20.3339 28.761 21.0893C28.7778 21.4224 28.7123 21.7381 28.5375 22.0238C28.359 22.3157 28.1296 22.5619 27.8259 22.7274C27.5997 22.8505 27.3676 22.9631 27.1014 23.0992Z" fill="white"></path><path d="M43.5873 20.5543C42.7137 17.3197 42.188 13.991 41.2054 10.79C41.1 10.5074 40.9278 10.4648 40.3076 10.5521C39.8722 10.6134 39.4316 10.6834 38.9999 10.7736C30.6039 12.528 22.2162 14.3253 13.8018 15.9871C12.7597 16.2194 10.2862 14.4391 9.94519 13.4267C8.70937 9.75794 9.63468 16.9557 9.76723 18.2286C10.3641 20.698 10.8587 23.19 11.3792 25.6764C11.4901 26.2092 11.6011 26.7421 11.7124 27.2748C11.7424 27.4997 11.9182 27.6582 12.1447 27.6675C12.5379 27.707 13.1108 27.5718 13.5514 27.4873C14.3711 27.3263 15.1911 27.1671 16.0105 27.0049C19.7778 26.2498 23.5378 25.4592 27.3015 24.6862C27.3013 24.6853 27.301 24.6843 27.3009 24.6834C31.2497 23.8836 35.1839 23.0157 39.1229 22.17C40.3539 21.9045 41.5881 21.6436 42.8092 21.3364C43.2031 21.2589 43.7714 21.0123 43.5873 20.5543Z" fill="#2B8958"></path><path d="M44.2225 19.6529C44.1478 19.3312 44.0725 19.0096 43.9973 18.688C43.9971 18.6873 43.997 18.6864 43.9967 18.6857C43.7141 17.4788 43.4294 16.2723 43.1566 15.0634C42.6203 12.6873 42.1008 10.3077 41.5637 7.93186C41.5533 7.88638 41.543 7.84081 41.5328 7.79532C41.5227 7.75091 41.5128 7.7065 41.5027 7.6621C41.3807 7.12398 41.2205 6.59351 41.0488 6.06687C40.9197 5.67078 40.7401 5.59943 40.1109 5.67278C39.8341 5.70504 39.5555 5.74188 39.2785 5.78745C39.114 5.81456 38.9499 5.84467 38.7872 5.87885C38.7868 5.87893 38.7864 5.87901 38.786 5.87909C38.6165 5.9146 38.4471 5.95036 38.2777 5.9862C38.246 5.99294 38.2144 5.99959 38.1828 6.00633C38.0177 6.04134 37.8526 6.07635 37.6876 6.11152C37.663 6.11676 37.6384 6.122 37.6139 6.12724C36.1753 6.43426 34.7382 6.74802 33.2984 7.04955C30.9525 7.54077 28.6032 8.01685 26.2565 8.50483C24.6918 8.83014 23.1286 9.16303 21.5655 9.49624C21.0323 9.60992 20.5036 9.74472 19.9695 9.85299C18.8428 10.0814 17.7142 10.3008 16.5857 10.5201C15.6486 10.7022 14.7085 10.8687 13.7735 11.0608C13.6332 11.0896 13.4929 11.1186 13.3527 11.1478C13.3526 11.1478 13.3525 11.1478 13.3524 11.1479C13.1403 11.192 12.9282 11.2367 12.7163 11.2819C12.7079 11.2837 12.6994 11.2855 12.691 11.2873C12.5909 11.3087 12.4908 11.3302 12.3908 11.3519C12.3791 11.3544 12.3675 11.357 12.3559 11.3595C12.255 11.3814 12.1541 11.4034 12.0533 11.4257C12.0492 11.4266 12.045 11.4275 12.0409 11.4284C11.9421 11.4502 11.8433 11.4723 11.7446 11.4944C11.7352 11.4965 11.7258 11.4985 11.7164 11.5007C11.6202 11.5223 11.5239 11.5442 11.4278 11.5661C11.4108 11.5701 11.3937 11.574 11.3767 11.5779C11.2821 11.5996 11.1876 11.6214 11.0931 11.6435C11.0779 11.6471 11.0627 11.6506 11.0475 11.6541C10.9489 11.6772 10.8504 11.7004 10.7519 11.724C10.5661 11.7684 10.3837 11.8291 10.2042 11.8969C10.0248 11.9646 9.84822 12.0395 9.67425 12.1122C9.56265 12.1589 9.47084 12.212 9.39991 12.2715C9.39342 12.2769 9.38718 12.2824 9.38111 12.2879C9.35059 12.3154 9.3244 12.3443 9.30269 12.3744C9.29837 12.3804 9.29413 12.3864 9.29014 12.3926C9.27417 12.4171 9.26103 12.4424 9.2508 12.4685C9.24315 12.4881 9.23708 12.5082 9.23268 12.5286C9.22236 12.5764 9.22112 12.6267 9.2291 12.6794C9.23692 12.7309 9.24382 12.7828 9.25022 12.8346C9.26295 12.9383 9.27342 13.0425 9.28348 13.1467C9.28856 13.1989 9.29355 13.251 9.2987 13.3031C9.30386 13.3551 9.30926 13.4072 9.315 13.4592C9.33238 13.615 9.35367 13.7701 9.38577 13.9229C9.39991 13.9902 9.41429 14.0575 9.42876 14.1247C9.43234 14.1412 9.436 14.1576 9.43957 14.1742C9.45097 14.2265 9.46236 14.2787 9.47392 14.331C9.47716 14.3455 9.4804 14.36 9.48365 14.3745C9.49612 14.4308 9.50876 14.487 9.52148 14.5432C9.5234 14.5517 9.52531 14.5601 9.52722 14.5686C9.70352 15.347 9.89586 16.1222 10.0603 16.9032C10.577 19.358 11.0864 21.8143 11.5965 24.2705C11.5965 24.2711 11.5967 24.2716 11.5968 24.2722C11.7503 25.0116 11.9039 25.751 12.0578 26.4904C12.0688 26.543 12.0811 26.5917 12.0953 26.6367C12.1001 26.6517 12.105 26.6663 12.11 26.6805C12.1254 26.723 12.1427 26.7618 12.1623 26.7971C12.1818 26.8325 12.2037 26.8642 12.2282 26.8927C12.2364 26.9022 12.2448 26.9112 12.2536 26.92C12.258 26.9243 12.2624 26.9286 12.267 26.9328C12.276 26.9412 12.2854 26.9492 12.2952 26.9568C12.3292 26.9836 12.3673 27.006 12.4099 27.0242C12.4282 27.032 12.4473 27.039 12.4674 27.0453C12.4874 27.0516 12.5084 27.0572 12.5302 27.062C12.5594 27.0685 12.5903 27.0736 12.6229 27.0775C12.631 27.0785 12.6394 27.0795 12.6477 27.0803C12.8237 27.0978 13.0497 27.0815 13.3415 27.0383C13.3702 27.0341 13.399 27.0287 13.4277 27.0232C13.4564 27.0176 13.4851 27.0116 13.5138 27.006C13.515 27.0058 13.5163 27.0055 13.5176 27.0053C13.6265 26.9842 13.7355 26.963 13.8445 26.9421C13.8825 26.9348 13.9204 26.9274 13.9584 26.9201C14.0303 26.9062 14.1022 26.8924 14.1741 26.8786C14.2206 26.8697 14.2671 26.8608 14.3135 26.8519C14.3611 26.8427 14.4088 26.8336 14.4564 26.8244C15.1186 26.6974 15.7807 26.5711 16.4424 26.4423H16.4426C16.9396 26.3455 17.4364 26.2473 17.9326 26.1461C21.2367 25.4725 24.5383 24.7863 27.8408 24.1052C27.8406 24.1039 27.8402 24.1026 27.84 24.1012C29.0046 23.8611 30.1717 23.6308 31.3336 23.3788C34.1459 22.7688 36.9573 22.1544 39.7678 21.5367C39.7691 21.5364 39.7703 21.5362 39.7715 21.5359C40.2906 21.4218 40.8096 21.3077 41.3286 21.1933C41.5091 21.1536 41.6895 21.1127 41.8696 21.0707C41.9597 21.0497 42.0496 21.0284 42.1396 21.007C42.5893 20.8996 43.0374 20.7862 43.4835 20.6685C43.4953 20.6654 43.5071 20.6622 43.5187 20.659C43.5216 20.6581 43.5246 20.6573 43.5275 20.6565C43.5383 20.6535 43.5488 20.6506 43.5593 20.6475C43.5601 20.6472 43.561 20.647 43.5619 20.6467C43.5732 20.6434 43.5842 20.6401 43.5952 20.6368C43.5977 20.636 43.6002 20.6352 43.6028 20.6344C43.6127 20.6313 43.6225 20.6283 43.6322 20.6251C43.6333 20.6248 43.6345 20.6244 43.6356 20.624C43.6464 20.6205 43.657 20.617 43.6676 20.6134C43.6694 20.6127 43.6712 20.6121 43.6731 20.6115C43.6826 20.6081 43.6921 20.6048 43.7015 20.6015C43.7025 20.6012 43.7035 20.6007 43.7045 20.6004C43.715 20.5967 43.7252 20.5928 43.7353 20.5889C43.7363 20.5885 43.7373 20.5882 43.7384 20.5878C43.748 20.5841 43.7574 20.5804 43.7667 20.5766C43.7674 20.5764 43.7681 20.576 43.7689 20.5758C43.7789 20.5717 43.7889 20.5676 43.7986 20.5634C43.7987 20.5633 43.7989 20.5633 43.799 20.5632C43.8086 20.5591 43.8181 20.5549 43.8273 20.5508C43.8278 20.5505 43.8282 20.5503 43.8287 20.5501C43.8478 20.5415 43.8661 20.5326 43.8837 20.5237C43.8839 20.5236 43.8842 20.5234 43.8844 20.5233C43.9022 20.5143 43.9193 20.5049 43.9357 20.4955C43.9358 20.4954 43.9358 20.4954 43.9359 20.4953C44.1812 20.3536 44.2772 20.1662 44.2665 19.9066C44.2627 19.8206 44.2419 19.7366 44.2225 19.6529Z" fill="#66CC99"></path><path d="M39.4111 19.0067C39.5214 18.6197 39.7105 18.2787 39.9833 17.983C40.2538 17.6899 40.5743 17.4667 40.9495 17.3374C41.2028 17.2502 41.467 17.1893 41.7304 17.1377C41.7837 17.1272 41.8369 17.1194 41.8902 17.1137C41.7283 16.4288 41.5672 15.7436 41.4113 15.0574C41.0044 13.2669 40.6098 11.4738 40.2045 9.68293C39.9991 9.72967 39.7911 9.76302 39.5788 9.771C39.0846 9.78963 38.6293 9.6584 38.1984 9.42123C37.7454 9.17184 37.3711 8.83829 37.0983 8.39922C36.9526 8.16471 36.8458 7.92405 36.7791 7.6774C35.4281 7.9643 34.0786 8.25818 32.7267 8.541C30.6278 8.97999 28.5262 9.40643 26.4267 9.84268C25.0268 10.1336 23.6283 10.4306 22.2297 10.7281C21.7526 10.8295 21.2793 10.9484 20.8015 11.0454C19.7936 11.2501 18.7841 11.4471 17.7747 11.6442C16.9365 11.8079 16.0959 11.9586 15.2594 12.1305C14.7375 12.2376 14.2159 12.3475 13.6956 12.4618C13.715 12.6031 13.7219 12.7478 13.7165 12.8954C13.7105 13.06 13.6919 13.2242 13.679 13.3885C13.5783 13.8534 13.4386 14.3001 13.1515 14.6868C12.8667 15.0703 12.4992 15.3417 12.0377 15.4737C11.8736 15.5206 11.7082 15.5628 11.5409 15.5943C11.6535 16.0713 11.7684 16.5479 11.8695 17.0273C12.2917 19.0295 12.7074 21.0331 13.1237 23.0365C13.1584 23.0294 13.1933 23.0224 13.228 23.0156C13.5825 22.9461 13.936 22.9891 14.2847 23.0707C14.414 23.1009 14.5416 23.1378 14.6701 23.1713C14.898 23.2305 15.112 23.3205 15.2994 23.4651C15.37 23.5195 15.4385 23.5794 15.4975 23.646C15.6544 23.8231 15.8254 23.9919 15.9547 24.188C16.1362 24.463 16.2495 24.7607 16.2996 25.0754C17.1226 24.9168 17.9455 24.7574 18.7667 24.5899C21.7224 23.9867 24.6761 23.3732 27.6306 22.7639C27.6304 22.7629 27.6302 22.7618 27.6299 22.7607C28.6718 22.5458 29.7157 22.3392 30.7554 22.1146C33.6264 21.4941 36.4964 20.869 39.3655 20.2404C39.2764 19.8447 39.2895 19.4334 39.4111 19.0067Z" fill="#339966"></path><path d="M18.326 18.5614C18.2755 18.795 18.2053 19.0194 18.061 19.2136C17.918 19.4063 17.7334 19.5426 17.5015 19.6089C17.3438 19.6541 17.1837 19.6906 17.0185 19.6969C16.7702 19.7062 16.5415 19.6403 16.3251 19.5212C16.0975 19.3958 15.9094 19.2284 15.7724 19.0077C15.5727 18.6863 15.5179 18.3423 15.6225 17.9755C15.6779 17.7811 15.7729 17.6098 15.91 17.4612C16.0459 17.314 16.2069 17.2019 16.3954 17.1369C16.5226 17.0931 16.6554 17.0625 16.7877 17.0366C16.9657 17.0017 17.1433 17.0233 17.3186 17.0643C17.3835 17.0795 17.4476 17.098 17.5122 17.1148C17.6266 17.1446 17.7342 17.1898 17.8283 17.2624C17.8638 17.2898 17.8982 17.3199 17.9279 17.3533C18.0066 17.4423 18.0926 17.5271 18.1575 17.6256C18.2941 17.8326 18.354 18.0651 18.3449 18.3136C18.3419 18.3964 18.3325 18.4789 18.326 18.5614Z" fill="#66CC99"></path><path d="M37.8135 14.5426C37.7629 14.7762 37.6927 15.0006 37.5485 15.1948C37.4054 15.3875 37.2208 15.5238 36.989 15.5901C36.8312 15.6353 36.6711 15.6718 36.506 15.6781C36.2577 15.6874 36.029 15.6215 35.8125 15.5024C35.5849 15.377 35.3969 15.2096 35.2598 14.9889C35.0602 14.6675 35.0054 14.3235 35.11 13.9567C35.1654 13.7623 35.2603 13.591 35.3975 13.4424C35.5334 13.2952 35.6944 13.1831 35.8829 13.1181C36.0101 13.0743 36.1428 13.0437 36.2751 13.0178C36.4532 12.9829 36.6308 13.0045 36.806 13.0455C36.871 13.0607 36.9351 13.0792 36.9996 13.096C37.114 13.1258 37.2216 13.171 37.3158 13.2436C37.3513 13.271 37.3856 13.3011 37.4153 13.3345C37.4941 13.4235 37.5801 13.5083 37.645 13.6068C37.7816 13.8138 37.8415 14.0463 37.8324 14.2948C37.8293 14.3776 37.82 14.4601 37.8135 14.5426Z" fill="#66CC99"></path><path d="M32.1218 17.2076C31.9634 18.1518 31.5665 19.0599 30.9271 19.8121C29.3759 21.6373 26.6387 22.2749 24.4516 21.282C24.3886 21.2531 24.3261 21.2233 24.2641 21.1924C21.0067 19.5581 19.9494 14.889 22.8403 12.3874C24.7166 10.7639 27.8124 10.4605 29.9084 11.8314C31.71 13.01 32.46 15.1911 32.1218 17.2076Z" fill="#66CC99"></path><path d="M27.8341 19.4118C27.8719 19.5951 27.9154 19.8006 27.9564 20.0066C27.9901 20.1757 27.9741 20.2083 27.8024 20.2435C27.5723 20.2907 27.3401 20.3283 27.1079 20.3642C26.9698 20.3856 26.926 20.3519 26.8947 20.2101C26.8533 20.0225 26.8164 19.834 26.7755 19.6355C26.691 19.6325 26.6206 19.6284 26.5501 19.6279C25.9937 19.6241 25.5359 19.4016 25.1577 19.0016C24.9928 18.8273 24.9053 18.6069 24.8004 18.3978C24.7474 18.292 24.7787 18.218 24.8847 18.156C24.9359 18.1261 24.9935 18.1023 25.0513 18.0897C25.2749 18.0409 25.5 17.9989 25.7241 17.952C25.8284 17.9303 25.8914 17.9726 25.9463 18.0607C26.0287 18.193 26.1176 18.3225 26.2155 18.4437C26.3952 18.666 26.6453 18.7258 26.9145 18.701C27.2147 18.6733 27.5013 18.5701 27.7259 18.3758C28.2634 17.9112 28.1998 17.2956 27.6213 16.9112C27.373 16.7462 27.0753 16.6968 26.7817 16.6522C26.2519 16.5717 25.7192 16.498 25.215 16.3067C25.031 16.2368 24.8513 16.1435 24.6878 16.0338C24.3153 15.7841 24.1617 15.4145 24.1818 14.976C24.214 14.2763 24.5543 13.7709 25.1772 13.4543C25.2574 13.4135 25.3404 13.3784 25.4396 13.3326C25.4243 13.2419 25.4103 13.1488 25.3927 13.0564C25.3712 12.944 25.3457 12.8323 25.3237 12.72C25.2995 12.5961 25.3199 12.5411 25.4334 12.5128C25.6784 12.4517 25.9265 12.4026 26.1739 12.3517C26.2719 12.3315 26.339 12.3818 26.3733 12.4686C26.4107 12.5635 26.4426 12.6612 26.4682 12.76C26.4968 12.8701 26.5155 12.9827 26.5398 13.1006C26.6296 13.1076 26.6999 13.114 26.7704 13.1185C27.6053 13.1714 28.0438 13.6783 28.4116 14.3653C28.4669 14.4686 28.4375 14.5508 28.3341 14.6088C28.2775 14.6406 28.2126 14.6623 28.1487 14.6754C27.9953 14.7066 27.8395 14.7267 27.686 14.7578C27.5592 14.7834 27.472 14.7512 27.3955 14.6378C27.3227 14.53 27.2232 14.4384 27.1275 14.3482C26.6804 13.9265 25.8576 14.1769 25.5893 14.6518C25.4564 14.887 25.5072 15.1826 25.7191 15.3532C25.863 15.4691 26.0299 15.5396 26.2124 15.5617C26.4153 15.5861 26.6198 15.596 26.8232 15.616C27.0985 15.643 27.3757 15.6604 27.6483 15.7053C28.4344 15.8348 29.1089 16.4703 29.2383 17.2155C29.2953 17.5442 29.2684 17.8655 29.1296 18.1703C28.9876 18.4816 28.7898 18.7538 28.5084 18.9548C28.2987 19.1047 28.0818 19.2445 27.8341 19.4118Z" fill="white"></path></svg> 